<svg width="24" height="20" viewBox="0 0 24 20" fill="none" xmlns="http://www.w3.org/2000/svg">
<g filter="url(#filter0_d_1_1734)">
<path d="M22 1.88C21.25 2.25 20.5 2.38 19.62 2.5C20.5 2 21.12 1.25 21.37 0.25C20.5606 0.731306 19.6743 1.06959 18.75 1.25C17.9485 0.46227 16.8737 0.0144601 15.75 0C13.62 0 11.75 1.88 11.75 4.13C11.75 4.5 11.75 4.75 11.88 5C10.2422 4.93823 8.63643 4.52707 7.17046 3.79408C5.70448 3.0611 4.41212 2.02321 3.38 0.75C3.00812 1.39563 2.83425 2.13634 2.88 2.88C2.89162 3.55196 3.06825 4.21077 3.39434 4.79842C3.72043 5.38608 4.18597 5.88456 4.75 6.25C4.12 6.25 3.5 6 2.87 5.75C2.87 7.75 4.25 9.38 6.12 9.75C5.75 9.88 5.37 9.88 5 9.88C4.75 9.88 4.5 9.88 4.25 9.75C4.75 11.38 6.25 12.63 8.13 12.63C6.67779 13.7963 4.8622 14.4156 3 14.38H2C3.87496 15.5591 6.03554 16.2056 8.25 16.25C15.75 16.25 19.88 10 19.88 4.62V4.12C20.7387 3.53355 21.4617 2.76969 22 1.88Z" fill="white"/>
</g>
<defs>
<filter id="filter0_d_1_1734" x="-2" y="0" width="28" height="24.25" filterUnits="userSpaceOnUse" color-interpolation-filters="sRGB">
<feFlood flood-opacity="0" result="BackgroundImageFix"/>
<feColorMatrix in="SourceAlpha" type="matrix" values="0 0 0 0 0 0 0 0 0 0 0 0 0 0 0 0 0 0 127 0" result="hardAlpha"/>
<feOffset dy="4"/>
<feGaussianBlur stdDeviation="2"/>
<feComposite in2="hardAlpha" operator="out"/>
<feColorMatrix type="matrix" values="0 0 0 0 0 0 0 0 0 0 0 0 0 0 0 0 0 0 0.25 0"/>
<feBlend mode="normal" in2="BackgroundImageFix" result="effect1_dropShadow_1_1734"/>
<feBlend mode="normal" in="SourceGraphic" in2="effect1_dropShadow_1_1734" result="shape"/>
</filter>
</defs>
</svg>
